<svg width="31" height="30" viewBox="0 0 31 30" fill="none" xmlns="http://www.w3.org/2000/svg">
<path d="M15.1822 25.2C9.54218 25.2 4.98218 20.64 4.98218 15C4.98218 9.35999 9.54218 4.79999 15.1822 4.79999C20.8222 4.79999 25.3822 9.35999 25.3822 15C25.3822 20.64 20.8222 25.2 15.1822 25.2ZM15.1822 5.99999C10.2022 5.99999 6.18218 10.02 6.18218 15C6.18218 19.98 10.2022 24 15.1822 24C20.1622 24 24.1822 19.98 24.1822 15C24.1822 10.02 20.1622 5.99999 15.1822 5.99999Z" fill="black"/>
<path d="M15.0022 20.82L14.1622 19.98L19.1422 15L14.1622 10.02L15.0022 9.17999L20.8222 15L15.0022 20.82Z" fill="black"/>
<path d="M9.78217 14.4H19.9822V15.6H9.78217V14.4Z" fill="black"/>
</svg>
