<svg width="31" height="30" viewBox="0 0 31 30" fill="none" xmlns="http://www.w3.org/2000/svg">
<path d="M15.8496 25.2C10.2096 25.2 5.6496 20.64 5.6496 15C5.6496 9.35999 10.2096 4.79999 15.8496 4.79999C21.4896 4.79999 26.0496 9.35999 26.0496 15C26.0496 20.64 21.4896 25.2 15.8496 25.2ZM15.8496 5.99999C10.8696 5.99999 6.8496 10.02 6.8496 15C6.8496 19.98 10.8696 24 15.8496 24C20.8296 24 24.8496 19.98 24.8496 15C24.8496 10.02 20.8296 5.99999 15.8496 5.99999Z" fill="white"/>
<path d="M15.6696 20.82L14.8296 19.98L19.8096 15L14.8296 10.02L15.6696 9.17999L21.4896 15L15.6696 20.82Z" fill="white"/>
<path d="M10.4496 14.4H20.6496V15.6H10.4496V14.4Z" fill="white"/>
</svg>
