<svg width="14" height="14" viewBox="0 0 14 14" fill="none" xmlns="http://www.w3.org/2000/svg">
<path d="M11.6801 2.31738C10.8335 1.4723 9.77368 0.872477 8.61337 0.581696C7.45307 0.290914 6.23565 0.320049 5.09059 0.666C3.94552 1.01195 2.91563 1.66178 2.11044 2.54639C1.30525 3.43099 0.754872 4.51729 0.517836 5.68975C0.280799 6.86222 0.36597 8.077 0.764289 9.20492C1.16261 10.3328 1.85918 11.3317 2.77993 12.0953C3.70068 12.8589 4.81117 13.3587 5.9933 13.5415C7.17544 13.7242 8.38501 13.5832 9.49339 13.1334C10.7143 12.6389 11.7595 11.7908 12.4948 10.6979C13.2302 9.60502 13.622 8.31727 13.6201 7.00004C13.6227 6.12997 13.4526 5.26803 13.1195 4.4642C12.7865 3.66038 12.2972 2.93066 11.6801 2.31738ZM2.78672 2.79071C3.8574 1.71763 5.29818 1.09504 6.81339 1.05071C6.806 1.56085 6.72976 2.06765 6.58672 2.55738L6.36006 2.43071C6.28486 2.39672 6.19973 2.39184 6.12114 2.417C6.04255 2.44216 5.97608 2.49558 5.93461 2.56692C5.89313 2.63826 5.87959 2.72245 5.89661 2.8032C5.91362 2.88394 5.95999 2.95551 6.02672 3.00404L6.36006 3.19738C6.10127 3.7986 5.74791 4.35452 5.31339 4.84404L5.08006 4.61071C5.01775 4.54963 4.93397 4.51542 4.84672 4.51542C4.75947 4.51542 4.6757 4.54963 4.61339 4.61071C4.58215 4.6417 4.55735 4.67856 4.54043 4.71918C4.5235 4.7598 4.51479 4.80337 4.51479 4.84738C4.51479 4.89138 4.5235 4.93495 4.54043 4.97557C4.55735 5.01619 4.58215 5.05306 4.61339 5.08404L4.84006 5.31071C4.35318 5.75044 3.79674 6.10638 3.19339 6.36404L3.00006 6.02404C2.95664 5.94723 2.88455 5.89076 2.79957 5.86702C2.71459 5.84328 2.62367 5.85419 2.54672 5.89738C2.46991 5.94256 2.41415 6.01635 2.39166 6.10258C2.36916 6.1888 2.38177 6.28043 2.42672 6.35738L2.56006 6.58404C2.0712 6.73182 1.56405 6.81036 1.05339 6.81738C1.09119 5.30205 1.71207 3.85971 2.78672 2.79071ZM6.82672 10.3334C6.78864 10.3115 6.74662 10.2973 6.70306 10.2917C6.6595 10.286 6.61525 10.289 6.57285 10.3005C6.53044 10.3119 6.49071 10.3316 6.45591 10.3584C6.42112 10.3852 6.39194 10.4186 6.37006 10.4567C6.34817 10.4948 6.334 10.5368 6.32835 10.5804C6.3227 10.6239 6.32569 10.6682 6.33714 10.7106C6.3486 10.753 6.36829 10.7927 6.3951 10.8275C6.42191 10.8623 6.45531 10.8915 6.49339 10.9134L6.82006 11.1067C6.6356 11.6987 6.53462 12.3135 6.52006 12.9334C5.11144 12.8235 3.78826 12.2145 2.78858 11.2161C1.7889 10.2176 1.17833 8.89519 1.06672 7.48671C1.68968 7.47619 2.30759 7.37283 2.90006 7.18004L3.09339 7.51338C3.12247 7.56376 3.16424 7.60565 3.21453 7.63488C3.26482 7.66412 3.32189 7.67969 3.38006 7.68004C3.43875 7.67943 3.49625 7.66333 3.54672 7.63338C3.58466 7.61177 3.61791 7.58283 3.64454 7.54823C3.67116 7.51363 3.69063 7.47408 3.7018 7.43188C3.71297 7.38967 3.71563 7.34567 3.7096 7.30243C3.70358 7.25919 3.689 7.21759 3.66672 7.18004L3.52672 6.94004C4.18303 6.65905 4.7871 6.26911 5.31339 5.78671L5.55339 6.02671C5.61493 6.08951 5.6988 6.12546 5.78672 6.12671C5.83139 6.12697 5.87565 6.11825 5.91688 6.10107C5.9581 6.0839 5.99546 6.05861 6.02672 6.02671C6.08776 5.96304 6.12184 5.87825 6.12184 5.79004C6.12184 5.70184 6.08776 5.61705 6.02672 5.55338L5.78672 5.31338C6.26415 4.78707 6.65156 4.18568 6.93339 3.53338L7.18006 3.67338C7.23053 3.70334 7.28803 3.71943 7.34672 3.72004C7.40589 3.72019 7.46408 3.70489 7.51552 3.67566C7.56697 3.64643 7.60989 3.60428 7.64006 3.55338C7.66198 3.51541 7.6761 3.47345 7.68159 3.42995C7.68708 3.38646 7.68383 3.3423 7.67203 3.30008C7.66024 3.25785 7.64013 3.21841 7.61288 3.18406C7.58564 3.14971 7.55182 3.12115 7.51339 3.10004L7.17339 2.90671C7.3631 2.3112 7.46637 1.69155 7.48006 1.06671C8.88859 1.17997 10.2108 1.79089 11.21 2.79009C12.2092 3.78928 12.8201 5.11151 12.9334 6.52004C12.3132 6.53677 11.6984 6.63999 11.1067 6.82671L10.9201 6.50004C10.8749 6.42323 10.8011 6.36747 10.7149 6.34498C10.6286 6.32248 10.537 6.33509 10.4601 6.38004C10.4219 6.40145 10.3885 6.43029 10.3617 6.46487C10.3349 6.49944 10.3153 6.53904 10.3041 6.58132C10.293 6.6236 10.2904 6.66769 10.2965 6.71099C10.3027 6.75429 10.3175 6.79591 10.3401 6.83338L10.4734 7.06671C9.81827 7.34992 9.21455 7.73964 8.68672 8.22004L8.45339 7.98671C8.4224 7.95547 8.38554 7.93067 8.34492 7.91375C8.3043 7.89682 8.26073 7.88811 8.21672 7.88811C8.17272 7.88811 8.12915 7.89682 8.08853 7.91375C8.04791 7.93067 8.01104 7.95547 7.98006 7.98671C7.91898 8.04902 7.88477 8.13279 7.88477 8.22004C7.88477 8.30729 7.91898 8.39107 7.98006 8.45338L8.22006 8.69338C7.73516 9.21523 7.34488 9.81757 7.06672 10.4734L6.82672 10.3334ZM11.2134 11.2134C10.1436 12.2869 8.70175 12.9075 7.18672 12.9467C7.19389 12.4387 7.27015 11.9341 7.41339 11.4467L7.64672 11.58C7.69649 11.6116 7.75446 11.6279 7.81339 11.6267C7.87156 11.6264 7.92863 11.6108 7.97892 11.5816C8.02921 11.5523 8.07097 11.5104 8.10006 11.46C8.14501 11.3831 8.15762 11.2915 8.13512 11.2052C8.11263 11.119 8.05687 11.0452 7.98006 11L7.64006 10.8067C7.89346 10.2027 8.24735 9.64589 8.68672 9.16004L8.92672 9.40004C8.99087 9.45423 9.07311 9.48221 9.157 9.47839C9.24088 9.47457 9.32024 9.43922 9.37919 9.37943C9.43815 9.31963 9.47236 9.23978 9.47499 9.15585C9.47763 9.07192 9.44848 8.99008 9.39339 8.92671L9.15339 8.68671C9.64423 8.25065 10.2026 7.89717 10.8067 7.64004L11.0067 7.98671C11.0358 8.03709 11.0776 8.07898 11.1279 8.10822C11.1782 8.13746 11.2352 8.15302 11.2934 8.15338C11.3523 8.15453 11.4103 8.1383 11.4601 8.10671C11.5362 8.06267 11.5921 7.99058 11.6158 7.90586C11.6395 7.82113 11.629 7.73051 11.5867 7.65338L11.4467 7.41338C11.9343 7.27093 12.4388 7.19469 12.9467 7.18671C12.9266 7.90521 12.7776 8.61425 12.5067 9.28004C12.2026 10.0001 11.7636 10.6555 11.2134 11.2107V11.2134Z" fill="black"/>
</svg>
